HIERARCHY
ROOT Hips
{
	OFFSET 0.000000 0.000000 0.000000 
	CHANNELS 6 Xposition Yposition Zposition Yrotation Xrotation Zrotation
	JOINT Spine
	{
		OFFSET 0.000000 0.072080 0.012321 
		CHANNELS 3 Xrotation Yrotation Zrotation
		JOINT Spine1
		{
			OFFSET 0.000000 0.126984 -0.001294 
			CHANNELS 3 Xrotation Yrotation Zrotation
			JOINT Spine2
			{
				OFFSET 0.000000 0.106559 -0.010096 
				CHANNELS 3 Xrotation Yrotation Zrotation
				JOINT Neck
				{
					OFFSET 0.000000 0.108417 -0.034017 
					CHANNELS 3 Xrotation Yrotation Zrotation
					JOINT Neck1
					{
						OFFSET 0.000000 0.033906 0.007241 
						CHANNELS 3 Xrotation Yrotation Zrotation
						JOINT Head
						{
							OFFSET 0.000000 0.031458 0.006707 
							CHANNELS 3 Xrotation Yrotation Zrotation
							End Site
							{
								OFFSET 0.000000 0.179920 0.000962 
							}
						}
					}
				}
				JOINT LeftShoulder
				{
					OFFSET 0.048002 0.079586 -0.029634 
					CHANNELS 3 Zrotation Xrotation Yrotation
					JOINT LeftArm
					{
						OFFSET 0.096243 -0.008695 -0.014012 
						CHANNELS 3 Zrotation Xrotation Yrotation
						JOINT LeftForeArm
						{
							OFFSET 0.216305 0.000000 0.000000 
							CHANNELS 3 Xrotation Zrotation Yrotation
							JOINT LeftHand
							{
								OFFSET 0.217764 0.000000 0.000000 
								CHANNELS 3 Zrotation Yrotation Xrotation
								JOINT LeftHandThumb1
								{
									OFFSET 0.018582 -0.007835 0.020476 
									CHANNELS 3 Zrotation Xrotation Yrotation
									JOINT LeftHandThumb2
									{
										OFFSET 0.026269 -0.007835 0.022186 
										CHANNELS 3 Zrotation Xrotation Yrotation
										JOINT LeftHandThumb3
										{
											OFFSET 0.035170 -0.010504 0.017018 
											CHANNELS 3 Zrotation Xrotation Yrotation
											End Site
											{
												OFFSET 0.020312 -0.007813 0.007813 
											}
										}
									}
								}
								JOINT LeftHandMiddle1
								{
									OFFSET 0.081749 0.004803 0.003358 
									CHANNELS 3 Zrotation Xrotation Yrotation
									JOINT LeftHandMiddle2
									{
										OFFSET 0.045251 0.000000 0.000000 
										CHANNELS 3 Zrotation Xrotation Yrotation
										JOINT LeftHandMiddle3
										{
											OFFSET 0.029009 0.000000 0.000000 
											CHANNELS 3 Zrotation Xrotation Yrotation
											End Site
											{
												OFFSET 0.017969 0.000000 0.000000 
											}
										}
									}
								}
								JOINT LeftHandIndex1
								{
									OFFSET 0.081207 0.004803 0.021137 
									CHANNELS 3 Zrotation Xrotation Yrotation
									JOINT LeftHandIndex2
									{
										OFFSET 0.043354 0.000000 0.000000 
										CHANNELS 3 Zrotation Xrotation Yrotation
										JOINT LeftHandIndex3
										{
											OFFSET 0.026493 0.000000 0.000000 
											CHANNELS 3 Zrotation Xrotation Yrotation
											End Site
											{
												OFFSET 0.019531 0.000000 0.000000 
											}
										}
									}
								}
								JOINT LeftHandRing1
								{
									OFFSET 0.080666 0.002509 -0.014652 
									CHANNELS 3 Zrotation Xrotation Yrotation
									JOINT LeftHandRing2
									{
										OFFSET 0.042541 0.000000 0.000000 
										CHANNELS 3 Zrotation Xrotation Yrotation
										JOINT LeftHandRing3
										{
											OFFSET 0.029009 0.000000 0.000000 
											CHANNELS 3 Zrotation Xrotation Yrotation
											End Site
											{
												OFFSET 0.015625 0.000000 0.000000 
											}
										}
									}
								}
								JOINT LeftHandPinky1
								{
									OFFSET 0.078227 -0.000612 -0.030993 
									CHANNELS 3 Zrotation Xrotation Yrotation
									JOINT LeftHandPinky2
									{
										OFFSET 0.028721 0.000000 0.000000 
										CHANNELS 3 Zrotation Xrotation Yrotation
										JOINT LeftHandPinky3
										{
											OFFSET 0.021963 0.000000 0.000000 
											CHANNELS 3 Zrotation Xrotation Yrotation
											End Site
											{
												OFFSET 0.022656 0.000000 0.000000 
											}
										}
									}
								}
							}
						}
					}
				}
				JOINT RightShoulder
				{
					OFFSET -0.047970 0.079586 -0.029634 
					CHANNELS 3 Zrotation Xrotation Yrotation
					JOINT RightArm
					{
						OFFSET -0.096274 -0.008695 -0.014012 
						CHANNELS 3 Zrotation Xrotation Yrotation
						JOINT RightForeArm
						{
							OFFSET -0.216305 0.000000 0.000000 
							CHANNELS 3 Xrotation Zrotation Yrotation
							JOINT RightHand
							{
								OFFSET -0.217764 0.000000 0.000000 
								CHANNELS 3 Zrotation Yrotation Xrotation
								JOINT RightHandThumb1
								{
									OFFSET -0.019670 -0.007318 0.019638 
									CHANNELS 3 Zrotation Xrotation Yrotation
									JOINT RightHandThumb2
									{
										OFFSET -0.025498 -0.008492 0.023179 
										CHANNELS 3 Zrotation Xrotation Yrotation
										JOINT RightHandThumb3
										{
											OFFSET -0.034504 -0.010705 0.016680 
											CHANNELS 3 Zrotation Xrotation Yrotation
											End Site
											{
												OFFSET -0.020312 -0.007813 0.007813 
											}
										}
									}
								}
								JOINT RightHandIndex1
								{
									OFFSET -0.081770 0.003825 0.021187 
									CHANNELS 3 Zrotation Xrotation Yrotation
									JOINT RightHandIndex2
									{
										OFFSET -0.042006 0.000000 0.000000 
										CHANNELS 3 Zrotation Xrotation Yrotation
										JOINT RightHandIndex3
										{
											OFFSET -0.026449 0.000000 0.000000 
											CHANNELS 3 Zrotation Xrotation Yrotation
											End Site
											{
												OFFSET -0.020312 0.000000 0.000000 
											}
										}
									}
								}
								JOINT RightHandMiddle1
								{
									OFFSET -0.084059 0.003825 0.003342 
									CHANNELS 3 Zrotation Xrotation Yrotation
									JOINT RightHandMiddle2
									{
										OFFSET -0.043881 0.000000 0.000000 
										CHANNELS 3 Zrotation Xrotation Yrotation
										JOINT RightHandMiddle3
										{
											OFFSET -0.029191 0.000000 0.000000 
											CHANNELS 3 Zrotation Xrotation Yrotation
											End Site
											{
												OFFSET -0.017969 0.000000 0.000000 
											}
										}
									}
								}
								JOINT RightHandRing1
								{
									OFFSET -0.081798 0.003030 -0.015127 
									CHANNELS 3 Zrotation Xrotation Yrotation
									JOINT RightHandRing2
									{
										OFFSET -0.042198 0.000000 0.000000 
										CHANNELS 3 Zrotation Xrotation Yrotation
										JOINT RightHandRing3
										{
											OFFSET -0.026497 0.000000 0.000000 
											CHANNELS 3 Zrotation Xrotation Yrotation
											End Site
											{
												OFFSET -0.017188 0.000000 0.000000 
											}
										}
									}
								}
								JOINT RightHandPinky1
								{
									OFFSET -0.077902 -0.000930 -0.030891 
									CHANNELS 3 Zrotation Xrotation Yrotation
									JOINT RightHandPinky2
									{
										OFFSET -0.028538 0.000000 0.000000 
										CHANNELS 3 Zrotation Xrotation Yrotation
										JOINT RightHandPinky3
										{
											OFFSET -0.021734 0.000000 0.000000 
											CHANNELS 3 Zrotation Xrotation Yrotation
											End Site
											{
												OFFSET -0.022656 0.000000 0.000000 
											}
										}
									}
								}
							}
						}
					}
				}
			}
		}
	}
	JOINT LeftUpLeg
	{
		OFFSET 0.075264 -0.025573 0.000000 
		CHANNELS 3 Xrotation Yrotation Zrotation
		JOINT LeftLeg
		{
			OFFSET 0.000000 -0.326016 -0.013516 
			CHANNELS 3 Xrotation Yrotation Zrotation
			JOINT LeftFoot
			{
				OFFSET 0.000098 -0.306172 -0.006623 
				CHANNELS 3 Xrotation Yrotation Zrotation
				JOINT LeftToeBase
				{
					OFFSET -0.001432 -0.095259 0.064705 
					CHANNELS 3 Xrotation Yrotation Zrotation
					End Site
					{
						OFFSET 0.000000 0.000000 0.079438 
					}
				}
			}
		}
	}
	JOINT RightUpLeg
	{
		OFFSET -0.075264 -0.025573 0.000000 
		CHANNELS 3 Xrotation Yrotation Zrotation
		JOINT RightLeg
		{
			OFFSET 0.000000 -0.326016 -0.013516 
			CHANNELS 3 Xrotation Yrotation Zrotation
			JOINT RightFoot
			{
				OFFSET 0.000098 -0.306172 -0.006623 
				CHANNELS 3 Xrotation Yrotation Zrotation
				JOINT RightToeBase
				{
					OFFSET -0.001432 -0.095259 0.064705 
					CHANNELS 3 Xrotation Yrotation Zrotation
					End Site
					{
						OFFSET 0.000025 0.000000 0.079438 
					}
				}
			}
		}
	}
}
MOTION
Frames: 4
Frame Time: 0.033333
-0.000185 0.692091 0.003254 2.948000 5.440700 -2.839700 4.924200 1.329300 1.491800 9.857100 2.800300 1.722100 9.857100 2.800300 1.722100 -7.496600 -3.145000 -0.434800 -0.000000 0.000000 -0.000000 -14.101400 -7.360300 -5.253900 -9.108800 1.264600 -1.039500 -65.089500 -6.449200 26.276899 11.144900 1.477700 -103.913101 -3.979700 -17.123100 18.268801 -10.552100 4.432400 -2.391500 1.170400 -0.602400 1.094400 3.650800 -3.261600 -4.251000 -76.446198 10.144600 -11.698600 -77.811798 9.005000 -11.917700 -0.000000 -0.000000 -0.000000 -72.653900 11.165300 -12.027000 -84.053703 8.989000 -12.395700 0.000000 -0.000000 -0.000000 -82.136703 2.901900 -9.399800 -81.042801 8.853300 -9.528500 -0.000000 0.000000 -0.000000 -88.730003 -2.454900 -9.400000 -90.532600 12.244500 -7.494700 -0.000000 0.000000 -0.000000 9.480700 1.766400 5.843200 54.515800 -5.483800 -10.535500 4.694300 3.186200 89.181801 4.820100 3.339900 4.562600 11.991400 8.793800 -5.684200 -0.457200 -1.637100 3.531700 -3.141100 -3.030300 4.239300 69.891403 9.289000 2.815700 90.745399 7.869700 10.227600 0.000000 -0.000000 -0.000000 74.716003 7.412400 7.701500 84.481003 8.178400 9.782600 -0.000000 0.000000 -0.000000 82.732201 3.152800 8.162000 86.901001 9.967300 9.783400 -0.000000 0.000000 -0.000000 95.894798 0.428800 9.513200 95.839996 15.148300 8.986800 -0.000000 0.000000 0.000000 -41.463200 5.910300 -1.175300 103.555901 14.045300 3.527500 -16.466999 -0.932700 5.004300 -0.898600 -2.887900 -6.627600 -20.927500 -5.545300 3.836200 52.012402 0.387000 -1.542800 -25.535900 -0.072600 0.267600 -10.243100 12.978200 -1.678500 
-0.001203 0.661355 0.134288 -3.529600 -1.447500 -1.204500 5.777300 1.775000 -0.040000 11.585700 3.483100 -0.729200 11.585700 3.483100 -0.729200 -6.174800 -4.511100 0.564200 -0.000000 0.000000 -0.000000 -11.215600 -11.084900 -2.805600 -10.039100 1.063000 0.305000 -59.465599 -9.399400 34.990898 17.783400 1.731500 -88.705498 -0.462800 -20.281200 16.819000 -9.121200 3.640200 -1.654500 1.171500 -0.696500 0.779000 3.650800 -3.261600 -4.251000 -70.446800 8.930900 -11.465100 -71.847702 7.781400 -11.494100 -0.000000 -0.000000 -0.000000 -66.472298 10.120600 -12.686600 -78.115997 7.723800 -11.890200 -0.000000 0.000000 -0.000000 -76.186302 1.888800 -8.369300 -74.980301 7.852000 -9.407200 -0.000000 -0.000000 -0.000000 -81.790703 -3.743300 -7.185100 -84.340797 11.419100 -8.004600 0.000000 0.000000 -0.000000 8.427000 1.743700 6.404700 40.907600 1.679900 9.940500 3.923600 2.029900 80.342598 2.427600 1.570300 1.591400 10.322700 7.745300 -5.604600 -0.458400 -1.652500 3.575800 -3.141100 -3.030300 4.239300 64.171402 8.269400 4.161100 84.139603 6.708900 9.845300 -0.000000 0.000000 -0.000000 68.996399 6.360800 7.721800 77.849800 7.060000 9.512700 0.000000 -0.000000 0.000000 76.803200 2.243300 7.043300 80.237396 8.834700 9.746100 0.000000 0.000000 0.000000 88.354103 -1.004200 7.381800 89.026802 14.065800 9.642400 -0.000000 0.000000 -0.000000 -59.001202 10.291500 -1.762800 93.011597 -1.292900 3.687000 -15.710800 -1.318600 4.997200 -2.108000 -1.824200 -7.129200 -17.880100 -10.449300 0.316100 66.259399 -0.178400 -1.318600 -22.424801 0.415300 -1.775200 -27.060900 9.999400 0.343700 
0.001228 0.623677 0.244116 -8.596000 -6.579000 -0.650900 6.490000 1.912800 -1.238400 13.034000 3.762300 -2.743100 13.033900 3.762300 -2.743100 -4.934900 -6.651700 3.248000 -0.000000 0.000000 -0.000000 -6.712800 -15.434800 0.533600 -9.667300 0.941800 0.929700 -55.109901 -10.862000 43.035000 22.015900 1.666700 -86.345001 2.142400 -19.429399 16.575100 -6.965700 2.543700 -0.508100 1.172100 -0.828300 0.337700 3.650800 -3.261600 -4.251000 -61.634201 7.202900 -10.893000 -63.074902 6.074300 -10.645000 -0.000000 -0.000000 -0.000000 -57.382500 8.635000 -13.462100 -69.378700 5.970700 -10.915300 -0.000000 0.000000 -0.000000 -67.402802 0.553900 -6.669000 -66.071503 6.413800 -9.037100 -0.000000 0.000000 -0.000000 -71.480003 -5.319200 -3.658900 -75.267700 10.117300 -8.581600 -0.000000 0.000000 0.000000 7.222000 1.615000 6.217600 31.698999 0.774800 23.715599 0.941400 0.323600 69.575104 2.202200 2.145400 -1.960400 7.851500 6.204600 -5.537400 -0.459600 -1.666500 3.616100 -3.141100 -3.030300 4.239200 55.744999 6.844800 6.014400 74.416901 5.096200 9.045600 -0.000000 0.000000 -0.000000 60.583199 4.878600 7.572200 68.094902 5.486300 8.884400 -0.000000 0.000000 -0.000000 68.054398 1.053800 5.232300 70.450798 7.191900 9.451100 0.000000 0.000000 0.000000 77.153198 -2.756100 3.949200 79.068802 12.352600 10.352800 -0.000000 0.000000 -0.000000 -62.254902 9.468300 -4.630300 83.718102 -8.426100 5.588700 -10.782700 -3.531000 9.790700 -7.329100 -4.449000 -5.664100 -12.470500 -14.407300 -5.302300 76.149803 4.142500 -2.645800 -20.930201 -2.264000 1.207100 -41.571499 3.262800 -0.292000 
0.005270 0.586451 0.329133 -15.025400 -11.223300 0.144400 7.209000 1.986000 -2.393700 14.504000 3.974700 -4.844000 14.504000 3.974700 -4.844000 -4.196500 -9.164500 6.115400 -0.000000 0.000000 -0.000000 -2.253200 -20.393600 3.669600 -9.444700 0.812100 1.678600 -51.691502 -11.762000 49.894402 22.291800 2.058300 -87.286003 5.377500 -17.582800 16.527201 -4.239300 1.318100 0.995700 1.171400 -0.978900 -0.165200 3.650800 -3.261600 -4.251000 -50.824600 5.230900 -9.840100 -52.296501 4.184600 -9.264000 0.000000 -0.000000 -0.000000 -46.218300 6.956600 -14.115700 -58.638000 4.050500 -9.374200 -0.000000 0.000000 -0.000000 -56.574501 -0.792000 -4.323000 -55.145199 4.752100 -8.285400 -0.000000 0.000000 -0.000000 -58.674999 -6.674500 1.009200 -64.189301 8.422000 -8.992500 -0.000000 -0.000000 0.000000 5.653800 1.414700 5.643900 28.310101 -3.224000 35.254200 -4.323000 -0.246800 61.957401 2.113300 3.614900 -5.655300 4.788700 4.321700 -5.536200 -0.459800 -1.669400 3.624400 -3.141100 -3.030300 4.239200 45.371498 5.267800 8.098600 62.463402 3.334500 7.709800 0.000000 -0.000000 0.000000 50.251499 3.209300 7.113100 56.110500 3.732500 7.762900 0.000000 0.000000 -0.000000 57.275700 -0.131800 2.779500 58.451302 5.278100 8.713000 0.000000 0.000000 -0.000000 63.241199 -4.250800 -0.630600 66.942902 10.124500 10.791900 0.000000 0.000000 0.000000 -64.788200 -1.998100 -10.961900 82.765099 -13.595600 4.829800 -8.295500 -4.941800 12.952500 -11.290900 -4.799200 -5.362300 -10.514700 -17.017700 -15.260900 86.957100 12.513300 -4.292100 -18.716499 -3.206300 3.222200 -48.457802 -7.584800 -1.680500 
